# xmcd
#
# Track frame offsets:
#	150
#	8902
#	17728
#	28783
#	38926
#	51120
#	64350
#	70699
#	81370
#	88694
#	101226
#	110003
#
# Disc length: 1584 seconds
#
# Revision: 0
# Processed by: cddbd v1.5.1PL2 Copyright (c) Steve Scherf et al.
# Submitted via: dBpowerAMP V4.0
#
DISCID=a2062e0c
DTITLE=Nathan Stanley - Sandy Ridge
DYEAR=2005
DGENRE=Bluegrass
TTITLE0=Sandy Ridge
TTITLE1=East Virginia Blues
TTITLE2=Nine Pound Hammer
TTITLE3=Old Time Pickin'
TTITLE4=I'll Fly Away
TTITLE5=Dream Of A Miner's Child
TTITLE6=Bile Them Cabbage Down
TTITLE7=Papaw's Mule
TTITLE8=Will The Circle Be Unbroken
TTITLE9=Somebody Loves You Darlin'
TTITLE10=Farther Along
TTITLE11=Drew's Tune
EXTD=
EXTT0=
EXTT1=
EXTT2=
EXTT3=
EXTT4=
EXTT5=
EXTT6=
EXTT7=
EXTT8=
EXTT9=
EXTT10=
EXTT11=
PLAYORDER=
